<mxfile host="app.diagrams.net" modified="2023-04-26T03:02:00.576Z" agent="Mozilla/5.0 (Macintosh; Intel Mac OS X 10_15_7) AppleWebKit/537.36 (KHTML, like Gecko) Chrome/112.0.0.0 Safari/537.36 Edg/112.0.1722.58" version="21.1.5" etag="DNmijQbBz53fjL5Q11Tx" type="github">
  <diagram name="Page-1" id="aZ-DFhkqy9sxXisSam01">
    <mxGraphModel>
      <root>
        <mxCell id="0" />
        <mxCell id="1" parent="0" />
      </root>
    </mxGraphModel>
  </diagram>
</mxfile>
